<svg id="green_plus" data-name="green plus" xmlns="http://www.w3.org/2000/svg" viewBox="0 0 304.493 304.493">
  <defs>
    <style>
      .cls-1 {
        fill: #84fe0a;
        fill-rule: evenodd;
      }
    </style>
  </defs>
  <path id="Combined-Shape-Copy-6" class="cls-1" d="M296.373,296.373v-4.06h4.06v4.06h4.06v4.06h-4.06v4.06h-4.06v-4.06h-4.06v-4.06Zm-32.479,0v-4.06h4.06v4.06h4.06v4.06h-4.06v4.06h-4.06v-4.06h-4.06v-4.06Zm-32.479,0v-4.06h4.06v4.06h4.06v4.06h-4.06v4.06h-4.06v-4.06h-4.06v-4.06Zm-32.479,0v-4.06H203v4.06h4.06v4.06H203v4.06h-4.06v-4.06h-4.06v-4.06Zm-32.479,0v-4.06h4.06v4.06h4.06v4.06h-4.06v4.06h-4.06v-4.06H162.4v-4.06Zm-32.479,0v-4.06h4.06v4.06h4.06v4.06h-4.06v4.06h-4.06v-4.06h-4.06v-4.06Zm-32.479,0v-4.06h4.06v4.06h4.06v4.06h-4.06v4.06H101.5v-4.06h-4.06v-4.06Zm-32.479,0v-4.06h4.06v4.06h4.06v4.06h-4.06v4.06h-4.06v-4.06h-4.06v-4.06Zm-32.479,0v-4.06H40.6v4.06h4.06v4.06H40.6v4.06h-4.06v-4.06h-4.06v-4.06Zm-32.479,0v-4.06H8.12v4.06h4.06v4.06H8.12v4.06H4.06v-4.06H0v-4.06Zm292.313-32.479v-4.06h4.06v4.06h4.06v4.06h-4.06v4.06h-4.06v-4.06h-4.06v-4.06Zm-32.479,0v-4.06h4.06v4.06h4.06v4.06h-4.06v4.06h-4.06v-4.06h-4.06v-4.06Zm-32.479,0v-4.06h4.06v4.06h4.06v4.06h-4.06v4.06h-4.06v-4.06h-4.06v-4.06Zm-32.479,0v-4.06H203v4.06h4.06v4.06H203v4.06h-4.06v-4.06h-4.06v-4.06Zm-32.479,0v-4.06h4.06v4.06h4.06v4.06h-4.06v4.06h-4.06v-4.06H162.4v-4.06Zm-32.479,0v-4.06h4.06v4.06h4.06v4.06h-4.06v4.06h-4.06v-4.06h-4.06v-4.06Zm-32.479,0v-4.06h4.06v4.06h4.06v4.06h-4.06v4.06H101.5v-4.06h-4.06v-4.06Zm-32.479,0v-4.06h4.06v4.06h4.06v4.06h-4.06v4.06h-4.06v-4.06h-4.06v-4.06Zm-32.479,0v-4.06H40.6v4.06h4.06v4.06H40.6v4.06h-4.06v-4.06h-4.06v-4.06Zm-32.479,0v-4.06H8.12v4.06h4.06v4.06H8.12v4.06H4.06v-4.06H0v-4.06Zm292.313-32.479v-4.06h4.06v4.06h4.06v4.06h-4.06v4.06h-4.06v-4.06h-4.06v-4.06Zm-32.479,0v-4.06h4.06v4.06h4.06v4.06h-4.06v4.06h-4.06v-4.06h-4.06v-4.06Zm-32.479,0v-4.06h4.06v4.06h4.06v4.06h-4.06v4.06h-4.06v-4.06h-4.06v-4.06Zm-32.479,0v-4.06H203v4.06h4.06v4.06H203v4.06h-4.06v-4.06h-4.06v-4.06Zm-32.479,0v-4.06h4.06v4.06h4.06v4.06h-4.06v4.06h-4.06v-4.06H162.4v-4.06Zm-32.479,0v-4.06h4.06v4.06h4.06v4.06h-4.06v4.06h-4.06v-4.06h-4.06v-4.06Zm-32.479,0v-4.06h4.06v4.06h4.06v4.06h-4.06v4.06H101.5v-4.06h-4.06v-4.06Zm-32.479,0v-4.06h4.06v4.06h4.06v4.06h-4.06v4.06h-4.06v-4.06h-4.06v-4.06Zm-32.479,0v-4.06H40.6v4.06h4.06v4.06H40.6v4.06h-4.06v-4.06h-4.06v-4.06Zm-32.479,0v-4.06H8.12v4.06h4.06v4.06H8.12v4.06H4.06v-4.06H0v-4.06Zm292.313-32.479v-4.06h4.06v4.06h4.06V203h-4.06v4.06h-4.06V203h-4.06v-4.06Zm-32.479,0v-4.06h4.06v4.06h4.06V203h-4.06v4.06h-4.06V203h-4.06v-4.06Zm-32.479,0v-4.06h4.06v4.06h4.06V203h-4.06v4.06h-4.06V203h-4.06v-4.06Zm-32.479,0v-4.06H203v4.06h4.06V203H203v4.06h-4.06V203h-4.06v-4.06Zm-32.479,0v-4.06h4.06v4.06h4.06V203h-4.06v4.06h-4.06V203H162.4v-4.06Zm-32.479,0v-4.06h4.06v4.06h4.06V203h-4.06v4.06h-4.06V203h-4.06v-4.06Zm-32.479,0v-4.06h4.06v4.06h4.06V203h-4.06v4.06H101.5V203h-4.06v-4.06Zm-32.479,0v-4.06h4.06v4.06h4.06V203h-4.06v4.06h-4.06V203h-4.06v-4.06Zm-32.479,0v-4.06H40.6v4.06h4.06V203H40.6v4.06h-4.06V203h-4.06v-4.06Zm-32.479,0v-4.06H8.12v4.06h4.06V203H8.12v4.06H4.06V203H0v-4.06Zm292.313-32.479V162.4h4.06v4.06h4.06v4.06h-4.06v4.06h-4.06v-4.06h-4.06v-4.06Zm-32.479,0V162.4h4.06v4.06h4.06v4.06h-4.06v4.06h-4.06v-4.06h-4.06v-4.06Zm-32.479,0V162.4h4.06v4.06h4.06v4.06h-4.06v4.06h-4.06v-4.06h-4.06v-4.06Zm-32.479,0V162.4H203v4.06h4.06v4.06H203v4.06h-4.06v-4.06h-4.06v-4.06Zm-32.479,0V162.4h4.06v4.06h4.06v4.06h-4.06v4.06h-4.06v-4.06H162.4v-4.06Zm-32.479,0V162.4h4.06v4.06h4.06v4.06h-4.06v4.06h-4.06v-4.06h-4.06v-4.06Zm-32.479,0V162.4h4.06v4.06h4.06v4.06h-4.06v4.06H101.5v-4.06h-4.06v-4.06Zm-32.479,0V162.4h4.06v4.06h4.06v4.06h-4.06v4.06h-4.06v-4.06h-4.06v-4.06Zm-32.479,0V162.4H40.6v4.06h4.06v4.06H40.6v4.06h-4.06v-4.06h-4.06v-4.06Zm-32.479,0V162.4H8.12v4.06h4.06v4.06H8.12v4.06H4.06v-4.06H0v-4.06Zm292.313-32.479v-4.06h4.06v4.06h4.06v4.06h-4.06v4.06h-4.06v-4.06h-4.06v-4.06Zm-32.479,0v-4.06h4.06v4.06h4.06v4.06h-4.06v4.06h-4.06v-4.06h-4.06v-4.06Zm-32.479,0v-4.06h4.06v4.06h4.06v4.06h-4.06v4.06h-4.06v-4.06h-4.06v-4.06Zm-32.479,0v-4.06H203v4.06h4.06v4.06H203v4.06h-4.06v-4.06h-4.06v-4.06Zm-32.479,0v-4.06h4.06v4.06h4.06v4.06h-4.06v4.06h-4.06v-4.06H162.4v-4.06Zm-32.479,0v-4.06h4.06v4.06h4.06v4.06h-4.06v4.06h-4.06v-4.06h-4.06v-4.06Zm-32.479,0v-4.06h4.06v4.06h4.06v4.06h-4.06v4.06H101.5v-4.06h-4.06v-4.06Zm-32.479,0v-4.06h4.06v4.06h4.06v4.06h-4.06v4.06h-4.06v-4.06h-4.06v-4.06Zm-32.479,0v-4.06H40.6v4.06h4.06v4.06H40.6v4.06h-4.06v-4.06h-4.06v-4.06Zm-32.479,0v-4.06H8.12v4.06h4.06v4.06H8.12v4.06H4.06v-4.06H0v-4.06ZM296.373,101.5v-4.06h4.06v4.06h4.06v4.06h-4.06v4.06h-4.06v-4.06h-4.06V101.5Zm-32.479,0v-4.06h4.06v4.06h4.06v4.06h-4.06v4.06h-4.06v-4.06h-4.06V101.5Zm-32.479,0v-4.06h4.06v4.06h4.06v4.06h-4.06v4.06h-4.06v-4.06h-4.06V101.5Zm-32.479,0v-4.06H203v4.06h4.06v4.06H203v4.06h-4.06v-4.06h-4.06V101.5Zm-32.479,0v-4.06h4.06v4.06h4.06v4.06h-4.06v4.06h-4.06v-4.06H162.4V101.5Zm-32.479,0v-4.06h4.06v4.06h4.06v4.06h-4.06v4.06h-4.06v-4.06h-4.06V101.5Zm-32.479,0v-4.06h4.06v4.06h4.06v4.06h-4.06v4.06H101.5v-4.06h-4.06V101.5Zm-32.479,0v-4.06h4.06v4.06h4.06v4.06h-4.06v4.06h-4.06v-4.06h-4.06V101.5Zm-32.479,0v-4.06H40.6v4.06h4.06v4.06H40.6v4.06h-4.06v-4.06h-4.06V101.5Zm-32.479,0v-4.06H8.12v4.06h4.06v4.06H8.12v4.06H4.06v-4.06H0V101.5ZM296.373,69.018v-4.06h4.06v4.06h4.06v4.06h-4.06v4.06h-4.06v-4.06h-4.06v-4.06Zm-32.479,0v-4.06h4.06v4.06h4.06v4.06h-4.06v4.06h-4.06v-4.06h-4.06v-4.06Zm-32.479,0v-4.06h4.06v4.06h4.06v4.06h-4.06v4.06h-4.06v-4.06h-4.06v-4.06Zm-32.479,0v-4.06H203v4.06h4.06v4.06H203v4.06h-4.06v-4.06h-4.06v-4.06Zm-32.479,0v-4.06h4.06v4.06h4.06v4.06h-4.06v4.06h-4.06v-4.06H162.4v-4.06Zm-32.479,0v-4.06h4.06v4.06h4.06v4.06h-4.06v4.06h-4.06v-4.06h-4.06v-4.06Zm-32.479,0v-4.06h4.06v4.06h4.06v4.06h-4.06v4.06H101.5v-4.06h-4.06v-4.06Zm-32.479,0v-4.06h4.06v4.06h4.06v4.06h-4.06v4.06h-4.06v-4.06h-4.06v-4.06Zm-32.479,0v-4.06H40.6v4.06h4.06v4.06H40.6v4.06h-4.06v-4.06h-4.06v-4.06Zm-32.479,0v-4.06H8.12v4.06h4.06v4.06H8.12v4.06H4.06v-4.06H0v-4.06ZM296.373,36.539v-4.06h4.06v4.06h4.06V40.6h-4.06v4.06h-4.06V40.6h-4.06v-4.06Zm-32.479,0v-4.06h4.06v4.06h4.06V40.6h-4.06v4.06h-4.06V40.6h-4.06v-4.06Zm-32.479,0v-4.06h4.06v4.06h4.06V40.6h-4.06v4.06h-4.06V40.6h-4.06v-4.06Zm-32.479,0v-4.06H203v4.06h4.06V40.6H203v4.06h-4.06V40.6h-4.06v-4.06Zm-32.479,0v-4.06h4.06v4.06h4.06V40.6h-4.06v4.06h-4.06V40.6H162.4v-4.06Zm-32.479,0v-4.06h4.06v4.06h4.06V40.6h-4.06v4.06h-4.06V40.6h-4.06v-4.06Zm-32.479,0v-4.06h4.06v4.06h4.06V40.6h-4.06v4.06H101.5V40.6h-4.06v-4.06Zm-32.479,0v-4.06h4.06v4.06h4.06V40.6h-4.06v4.06h-4.06V40.6h-4.06v-4.06Zm-32.479,0v-4.06H40.6v4.06h4.06V40.6H40.6v4.06h-4.06V40.6h-4.06v-4.06Zm-32.479,0v-4.06H8.12v4.06h4.06V40.6H8.12v4.06H4.06V40.6H0v-4.06ZM296.373,4.06V0h4.06V4.06h4.06V8.12h-4.06v4.06h-4.06V8.12h-4.06V4.06Zm-32.479,0V0h4.06V4.06h4.06V8.12h-4.06v4.06h-4.06V8.12h-4.06V4.06Zm-32.479,0V0h4.06V4.06h4.06V8.12h-4.06v4.06h-4.06V8.12h-4.06V4.06Zm-32.479,0V0H203V4.06h4.06V8.12H203v4.06h-4.06V8.12h-4.06V4.06Zm-32.479,0V0h4.06V4.06h4.06V8.12h-4.06v4.06h-4.06V8.12H162.4V4.06Zm-32.479,0V0h4.06V4.06h4.06V8.12h-4.06v4.06h-4.06V8.12h-4.06V4.06Zm-32.479,0V0h4.06V4.06h4.06V8.12h-4.06v4.06H101.5V8.12h-4.06V4.06Zm-32.479,0V0h4.06V4.06h4.06V8.12h-4.06v4.06h-4.06V8.12h-4.06V4.06Zm-32.479,0V0H40.6V4.06h4.06V8.12H40.6v4.06h-4.06V8.12h-4.06V4.06ZM4.06,4.06V0H8.12V4.06h4.06V8.12H8.12v4.06H4.06V8.12H0V4.06Z"/>
</svg>
