<svg xmlns="http://www.w3.org/2000/svg" viewBox="0 0 52.208 52.332">
  <defs>
    <style>
      .cls-1 {
        fill: #02216b;
      }
    </style>
  </defs>
  <path id="icons8-instagram_1" data-name="icons8-instagram 1" class="cls-1" d="M19.223,4A15.264,15.264,0,0,0,4,19.268V41.073A15.263,15.263,0,0,0,19.231,56.332H40.985A15.264,15.264,0,0,0,56.208,41.064V19.259A15.264,15.264,0,0,0,40.976,4Zm26.108,8.722A2.181,2.181,0,1,1,43.156,14.9,2.179,2.179,0,0,1,45.331,12.722ZM30.1,17.083A13.083,13.083,0,1,1,17.052,30.166,13.081,13.081,0,0,1,30.1,17.083Zm0,4.361A8.712,8.712,0,1,0,36.256,24,8.691,8.691,0,0,0,30.1,21.444Z" transform="translate(-4 -4)"/>
</svg>
