<svg xmlns="http://www.w3.org/2000/svg" viewBox="0 0 52.25 51.332">
  <defs>
    <style>
      .cls-1 {
        fill: #02216b;
      }
    </style>
  </defs>
  <path id="icons8-linkedin_1" data-name="icons8-linkedin 1" class="cls-1" d="M49.23,3.2H9.42A6.169,6.169,0,0,0,3.2,9.311v39.11a6.169,6.169,0,0,0,6.22,6.111H49.23a6.169,6.169,0,0,0,6.22-6.111V9.311A6.169,6.169,0,0,0,49.23,3.2ZM19.373,22.755V45.977H11.908V22.755ZM11.908,16c0-1.711,1.493-3.019,3.732-3.019S19.286,14.285,19.373,16c0,1.711-1.393,3.092-3.732,3.092C13.4,19.089,11.908,17.707,11.908,16Zm34.834,29.98H39.278V33.755c0-2.444-1.244-4.889-4.354-4.938h-.1c-3.011,0-4.255,2.518-4.255,4.938V45.977H23.1V22.755h7.464v3.129A9.373,9.373,0,0,1,37.8,22.755c4.939,0,8.945,3.337,8.945,10.1Z" transform="translate(-3.2 -3.2)"/>
</svg>
