<svg id="red_dots" data-name="red dots" xmlns="http://www.w3.org/2000/svg" viewBox="0 0 301.249 289.947">
  <defs>
    <style>
      .cls-1 {
        fill: #ff7374;
        fill-rule: evenodd;
      }
    </style>
  </defs>
  <path id="Combined-Shape-Copy-3" class="cls-1" d="M4.767,9.176A4.68,4.68,0,0,1,0,4.588,4.68,4.68,0,0,1,4.767,0,4.68,4.68,0,0,1,9.533,4.588,4.68,4.68,0,0,1,4.767,9.176Zm32.413,0a4.68,4.68,0,0,1-4.767-4.588,4.77,4.77,0,0,1,9.533,0A4.68,4.68,0,0,1,37.179,9.176Zm32.413,0a4.68,4.68,0,0,1-4.767-4.588,4.77,4.77,0,0,1,9.533,0A4.68,4.68,0,0,1,69.592,9.176Zm32.413,0a4.68,4.68,0,0,1-4.767-4.588,4.77,4.77,0,0,1,9.533,0A4.68,4.68,0,0,1,102.005,9.176Zm32.413,0a4.68,4.68,0,0,1-4.767-4.588,4.77,4.77,0,0,1,9.533,0A4.68,4.68,0,0,1,134.418,9.176Zm32.413,0a4.68,4.68,0,0,1-4.767-4.588,4.77,4.77,0,0,1,9.533,0A4.68,4.68,0,0,1,166.831,9.176Zm32.413,0a4.679,4.679,0,0,1-4.767-4.588,4.77,4.77,0,0,1,9.533,0A4.679,4.679,0,0,1,199.244,9.176Zm32.413,0a4.679,4.679,0,0,1-4.767-4.588,4.77,4.77,0,0,1,9.533,0A4.679,4.679,0,0,1,231.656,9.176Zm32.413,0A4.679,4.679,0,0,1,259.3,4.588a4.77,4.77,0,0,1,9.533,0A4.679,4.679,0,0,1,264.069,9.176Zm32.413,0a4.679,4.679,0,0,1-4.767-4.588,4.77,4.77,0,0,1,9.533,0A4.679,4.679,0,0,1,296.482,9.176ZM4.767,40.372a4.591,4.591,0,1,1,0-9.176,4.591,4.591,0,1,1,0,9.176Zm32.413,0a4.591,4.591,0,1,1,4.767-4.588A4.68,4.68,0,0,1,37.179,40.372Zm32.413,0a4.591,4.591,0,1,1,4.767-4.588A4.68,4.68,0,0,1,69.592,40.372Zm32.413,0a4.591,4.591,0,1,1,4.767-4.588A4.68,4.68,0,0,1,102.005,40.372Zm32.413,0a4.591,4.591,0,1,1,4.767-4.588A4.68,4.68,0,0,1,134.418,40.372Zm32.413,0a4.591,4.591,0,1,1,4.767-4.588A4.68,4.68,0,0,1,166.831,40.372Zm32.413,0a4.591,4.591,0,1,1,4.767-4.588A4.679,4.679,0,0,1,199.244,40.372Zm32.413,0a4.591,4.591,0,1,1,4.767-4.588A4.679,4.679,0,0,1,231.656,40.372Zm32.413,0a4.591,4.591,0,1,1,4.767-4.588A4.679,4.679,0,0,1,264.069,40.372Zm32.413,0a4.591,4.591,0,1,1,4.767-4.588A4.679,4.679,0,0,1,296.482,40.372ZM4.767,71.569a4.591,4.591,0,1,1,0-9.176,4.591,4.591,0,1,1,0,9.176Zm32.413,0a4.591,4.591,0,1,1,4.767-4.588A4.68,4.68,0,0,1,37.179,71.569Zm32.413,0a4.591,4.591,0,1,1,4.767-4.588A4.68,4.68,0,0,1,69.592,71.569Zm32.413,0a4.591,4.591,0,1,1,4.767-4.588A4.68,4.68,0,0,1,102.005,71.569Zm32.413,0a4.591,4.591,0,1,1,4.767-4.588A4.68,4.68,0,0,1,134.418,71.569Zm32.413,0a4.591,4.591,0,1,1,4.767-4.588A4.68,4.68,0,0,1,166.831,71.569Zm32.413,0a4.591,4.591,0,1,1,4.767-4.588A4.679,4.679,0,0,1,199.244,71.569Zm32.413,0a4.591,4.591,0,1,1,4.767-4.588A4.679,4.679,0,0,1,231.656,71.569Zm32.413,0a4.591,4.591,0,1,1,4.767-4.588A4.679,4.679,0,0,1,264.069,71.569Zm32.413,0a4.591,4.591,0,1,1,4.767-4.588A4.679,4.679,0,0,1,296.482,71.569ZM4.767,102.766a4.591,4.591,0,1,1,0-9.176,4.591,4.591,0,1,1,0,9.176Zm32.413,0a4.591,4.591,0,1,1,4.767-4.588A4.68,4.68,0,0,1,37.179,102.766Zm32.413,0a4.591,4.591,0,1,1,4.767-4.588A4.68,4.68,0,0,1,69.592,102.766Zm32.413,0a4.591,4.591,0,1,1,4.767-4.588A4.68,4.68,0,0,1,102.005,102.766Zm32.413,0a4.591,4.591,0,1,1,4.767-4.588A4.68,4.68,0,0,1,134.418,102.766Zm32.413,0a4.591,4.591,0,1,1,4.767-4.588A4.68,4.68,0,0,1,166.831,102.766Zm32.413,0a4.591,4.591,0,1,1,4.767-4.588A4.679,4.679,0,0,1,199.244,102.766Zm32.413,0a4.591,4.591,0,1,1,4.767-4.588A4.679,4.679,0,0,1,231.656,102.766Zm32.413,0a4.591,4.591,0,1,1,4.767-4.588A4.679,4.679,0,0,1,264.069,102.766Zm32.413,0a4.591,4.591,0,1,1,4.767-4.588A4.679,4.679,0,0,1,296.482,102.766ZM4.767,133.963a4.591,4.591,0,1,1,0-9.176,4.591,4.591,0,1,1,0,9.176Zm32.413,0a4.591,4.591,0,1,1,4.767-4.588A4.68,4.68,0,0,1,37.179,133.963Zm32.413,0a4.591,4.591,0,1,1,4.767-4.588A4.68,4.68,0,0,1,69.592,133.963Zm32.413,0a4.591,4.591,0,1,1,4.767-4.588A4.68,4.68,0,0,1,102.005,133.963Zm32.413,0a4.591,4.591,0,1,1,4.767-4.588A4.68,4.68,0,0,1,134.418,133.963Zm32.413,0a4.591,4.591,0,1,1,4.767-4.588A4.68,4.68,0,0,1,166.831,133.963Zm32.413,0a4.591,4.591,0,1,1,4.767-4.588A4.679,4.679,0,0,1,199.244,133.963Zm32.413,0a4.591,4.591,0,1,1,4.767-4.588A4.679,4.679,0,0,1,231.656,133.963Zm32.413,0a4.591,4.591,0,1,1,4.767-4.588A4.679,4.679,0,0,1,264.069,133.963Zm32.413,0a4.591,4.591,0,1,1,4.767-4.588A4.679,4.679,0,0,1,296.482,133.963ZM4.767,165.16a4.591,4.591,0,1,1,0-9.176,4.591,4.591,0,1,1,0,9.176Zm32.413,0a4.591,4.591,0,1,1,4.767-4.588A4.68,4.68,0,0,1,37.179,165.16Zm32.413,0a4.591,4.591,0,1,1,4.767-4.588A4.68,4.68,0,0,1,69.592,165.16Zm32.413,0a4.591,4.591,0,1,1,4.767-4.588A4.68,4.68,0,0,1,102.005,165.16Zm32.413,0a4.591,4.591,0,1,1,4.767-4.588A4.68,4.68,0,0,1,134.418,165.16Zm32.413,0a4.591,4.591,0,1,1,4.767-4.588A4.68,4.68,0,0,1,166.831,165.16Zm32.413,0a4.591,4.591,0,1,1,4.767-4.588A4.679,4.679,0,0,1,199.244,165.16Zm32.413,0a4.591,4.591,0,1,1,4.767-4.588A4.679,4.679,0,0,1,231.656,165.16Zm32.413,0a4.591,4.591,0,1,1,4.767-4.588A4.679,4.679,0,0,1,264.069,165.16Zm32.413,0a4.591,4.591,0,1,1,4.767-4.588A4.679,4.679,0,0,1,296.482,165.16ZM4.767,196.356a4.591,4.591,0,1,1,0-9.176,4.591,4.591,0,1,1,0,9.176Zm32.413,0a4.591,4.591,0,1,1,4.767-4.588A4.679,4.679,0,0,1,37.179,196.356Zm32.413,0a4.591,4.591,0,1,1,4.767-4.588A4.679,4.679,0,0,1,69.592,196.356Zm32.413,0a4.591,4.591,0,1,1,4.767-4.588A4.679,4.679,0,0,1,102.005,196.356Zm32.413,0a4.591,4.591,0,1,1,4.767-4.588A4.679,4.679,0,0,1,134.418,196.356Zm32.413,0a4.591,4.591,0,1,1,4.767-4.588A4.679,4.679,0,0,1,166.831,196.356Zm32.413,0a4.591,4.591,0,1,1,4.767-4.588A4.679,4.679,0,0,1,199.244,196.356Zm32.413,0a4.591,4.591,0,1,1,4.767-4.588A4.679,4.679,0,0,1,231.656,196.356Zm32.413,0a4.591,4.591,0,1,1,4.767-4.588A4.679,4.679,0,0,1,264.069,196.356Zm32.413,0a4.591,4.591,0,1,1,4.767-4.588A4.679,4.679,0,0,1,296.482,196.356ZM4.767,227.553a4.591,4.591,0,1,1,0-9.176,4.591,4.591,0,1,1,0,9.176Zm32.413,0a4.591,4.591,0,1,1,4.767-4.588A4.679,4.679,0,0,1,37.179,227.553Zm32.413,0a4.591,4.591,0,1,1,4.767-4.588A4.679,4.679,0,0,1,69.592,227.553Zm32.413,0a4.591,4.591,0,1,1,4.767-4.588A4.679,4.679,0,0,1,102.005,227.553Zm32.413,0a4.591,4.591,0,1,1,4.767-4.588A4.679,4.679,0,0,1,134.418,227.553Zm32.413,0a4.591,4.591,0,1,1,4.767-4.588A4.679,4.679,0,0,1,166.831,227.553Zm32.413,0a4.591,4.591,0,1,1,4.767-4.588A4.679,4.679,0,0,1,199.244,227.553Zm32.413,0a4.591,4.591,0,1,1,4.767-4.588A4.679,4.679,0,0,1,231.656,227.553Zm32.413,0a4.591,4.591,0,1,1,4.767-4.588A4.679,4.679,0,0,1,264.069,227.553Zm32.413,0a4.591,4.591,0,1,1,4.767-4.588A4.679,4.679,0,0,1,296.482,227.553ZM4.767,258.75a4.591,4.591,0,1,1,0-9.176,4.591,4.591,0,1,1,0,9.176Zm32.413,0a4.591,4.591,0,1,1,4.767-4.588A4.679,4.679,0,0,1,37.179,258.75Zm32.413,0a4.591,4.591,0,1,1,4.767-4.588A4.679,4.679,0,0,1,69.592,258.75Zm32.413,0a4.591,4.591,0,1,1,4.767-4.588A4.679,4.679,0,0,1,102.005,258.75Zm32.413,0a4.591,4.591,0,1,1,4.767-4.588A4.679,4.679,0,0,1,134.418,258.75Zm32.413,0a4.591,4.591,0,1,1,4.767-4.588A4.679,4.679,0,0,1,166.831,258.75Zm32.413,0a4.591,4.591,0,1,1,4.767-4.588A4.679,4.679,0,0,1,199.244,258.75Zm32.413,0a4.591,4.591,0,1,1,4.767-4.588A4.679,4.679,0,0,1,231.656,258.75Zm32.413,0a4.591,4.591,0,1,1,4.767-4.588A4.679,4.679,0,0,1,264.069,258.75Zm32.413,0a4.591,4.591,0,1,1,4.767-4.588A4.679,4.679,0,0,1,296.482,258.75ZM4.767,289.947a4.591,4.591,0,1,1,0-9.176,4.591,4.591,0,1,1,0,9.176Zm32.413,0a4.591,4.591,0,1,1,4.767-4.588A4.679,4.679,0,0,1,37.179,289.947Zm32.413,0a4.591,4.591,0,1,1,4.767-4.588A4.679,4.679,0,0,1,69.592,289.947Zm32.413,0a4.591,4.591,0,1,1,4.767-4.588A4.679,4.679,0,0,1,102.005,289.947Zm32.413,0a4.591,4.591,0,1,1,4.767-4.588A4.679,4.679,0,0,1,134.418,289.947Zm32.413,0a4.591,4.591,0,1,1,4.767-4.588A4.679,4.679,0,0,1,166.831,289.947Zm32.413,0a4.591,4.591,0,1,1,4.767-4.588A4.679,4.679,0,0,1,199.244,289.947Zm32.413,0a4.591,4.591,0,1,1,4.767-4.588A4.679,4.679,0,0,1,231.656,289.947Zm32.413,0a4.591,4.591,0,1,1,4.767-4.588A4.679,4.679,0,0,1,264.069,289.947Zm32.413,0a4.591,4.591,0,1,1,4.767-4.588A4.679,4.679,0,0,1,296.482,289.947Z"/>
</svg>
